STARTFONT 2.1
FONT --Arty-Regular-R-Normal--8-80-72-72-C-80-ISO10646-1
SIZE 8 72 72
FONTBOUNDINGBOX 8 8 0 0
METRICSSET 2
STARTPROPERTIES 16
PIXEL_SIZE 8
RESOLUTION_X 72
RESOLUTION_Y 72
POINT_SIZE 80
FOUNDRY ""
FAMILY_NAME "Arty"
WEIGHT_NAME "Regular"
RELATIVE_WEIGHT 50
SLANT "R"
SPACING "C"
SETWIDTH_NAME "Normal"
RELATIVE_SETWIDTH 50
ADD_STYLE_NAME ""
AVERAGE_WIDTH 80
CHARSET_REGISTRY "ISO10646"
CHARSET_ENCODING "1"
ENDPROPERTIES
CHARS 256
STARTCHAR uni0000
ENCODING 0
SWIDTH 1000 0
DWIDTH 8 0
BBX 8 8 0 0
VVECTOR 4 8
SWIDTH1 0 -1000
DWIDTH1 0 -8
BITMAP 
00
00
66
DB
DB
DB
66
00
ENDCHAR
STARTCHAR uni0001
ENCODING 1
SWIDTH 1000 0
DWIDTH 8 0
BBX 8 8 0 0
VVECTOR 4 8
SWIDTH1 0 -1000
DWIDTH1 0 -8
BITMAP 
3C
42
81
99
81
42
3C
00
ENDCHAR
STARTCHAR uni0002
ENCODING 2
SWIDTH 1000 0
DWIDTH 8 0
BBX 8 8 0 0
VVECTOR 4 8
SWIDTH1 0 -1000
DWIDTH1 0 -8
BITMAP 
FE
C6
C0
C0
C0
C0
C0
00
ENDCHAR
STARTCHAR uni0003
ENCODING 3
SWIDTH 1000 0
DWIDTH 8 0
BBX 8 8 0 0
VVECTOR 4 8
SWIDTH1 0 -1000
DWIDTH1 0 -8
BITMAP 
10
38
38
6C
6C
C6
FE
00
ENDCHAR
STARTCHAR uni0004
ENCODING 4
SWIDTH 1000 0
DWIDTH 8 0
BBX 8 8 0 0
VVECTOR 4 8
SWIDTH1 0 -1000
DWIDTH1 0 -8
BITMAP 
3C
42
A5
99
A5
42
3C
00
ENDCHAR
STARTCHAR uni0005
ENCODING 5
SWIDTH 1000 0
DWIDTH 8 0
BBX 8 8 0 0
VVECTOR 4 8
SWIDTH1 0 -1000
DWIDTH1 0 -8
BITMAP 
00
00
00
24
18
24
00
00
ENDCHAR
STARTCHAR uni0006
ENCODING 6
SWIDTH 1000 0
DWIDTH 8 0
BBX 8 8 0 0
VVECTOR 4 8
SWIDTH1 0 -1000
DWIDTH1 0 -8
BITMAP 
00
00
18
00
7E
00
18
00
ENDCHAR
STARTCHAR uni0007
ENCODING 7
SWIDTH 1000 0
DWIDTH 8 0
BBX 8 8 0 0
VVECTOR 4 8
SWIDTH1 0 -1000
DWIDTH1 0 -8
BITMAP 
00
00
18
18
00
66
66
00
ENDCHAR
STARTCHAR uni0008
ENCODING 8
SWIDTH 1000 0
DWIDTH 8 0
BBX 8 8 0 0
VVECTOR 4 8
SWIDTH1 0 -1000
DWIDTH1 0 -8
BITMAP 
FE
6C
6C
6C
6C
6C
6C
00
ENDCHAR
STARTCHAR uni0009
ENCODING 9
SWIDTH 1000 0
DWIDTH 8 0
BBX 8 8 0 0
VVECTOR 4 8
SWIDTH1 0 -1000
DWIDTH1 0 -8
BITMAP 
18
18
18
18
7E
3C
18
00
ENDCHAR
STARTCHAR uni000A
ENCODING 10
SWIDTH 1000 0
DWIDTH 8 0
BBX 8 8 0 0
VVECTOR 4 8
SWIDTH1 0 -1000
DWIDTH1 0 -8
BITMAP 
FE
C6
60
30
60
C6
FE
00
ENDCHAR
STARTCHAR uni000B
ENCODING 11
SWIDTH 1000 0
DWIDTH 8 0
BBX 8 8 0 0
VVECTOR 4 8
SWIDTH1 0 -1000
DWIDTH1 0 -8
BITMAP 
00
20
60
FE
FE
60
20
00
ENDCHAR
STARTCHAR uni000C
ENCODING 12
SWIDTH 1000 0
DWIDTH 8 0
BBX 8 8 0 0
VVECTOR 4 8
SWIDTH1 0 -1000
DWIDTH1 0 -8
BITMAP 
00
08
0C
FE
FE
0C
08
00
ENDCHAR
STARTCHAR uni000D
ENCODING 13
SWIDTH 1000 0
DWIDTH 8 0
BBX 8 8 0 0
VVECTOR 4 8
SWIDTH1 0 -1000
DWIDTH1 0 -8
BITMAP 
00
18
18
7E
18
18
7E
00
ENDCHAR
STARTCHAR uni000E
ENCODING 14
SWIDTH 1000 0
DWIDTH 8 0
BBX 8 8 0 0
VVECTOR 4 8
SWIDTH1 0 -1000
DWIDTH1 0 -8
BITMAP 
00
24
66
FF
FF
66
24
00
ENDCHAR
STARTCHAR uni000F
ENCODING 15
SWIDTH 1000 0
DWIDTH 8 0
BBX 8 8 0 0
VVECTOR 4 8
SWIDTH1 0 -1000
DWIDTH1 0 -8
BITMAP 
7C
C6
C6
C6
C6
6C
EE
00
ENDCHAR
STARTCHAR uni0010
ENCODING 16
SWIDTH 1000 0
DWIDTH 8 0
BBX 8 8 0 0
VVECTOR 4 8
SWIDTH1 0 -1000
DWIDTH1 0 -8
BITMAP 
00
00
73
DE
CC
DE
73
00
ENDCHAR
STARTCHAR uni0011
ENCODING 17
SWIDTH 1000 0
DWIDTH 8 0
BBX 8 8 0 0
VVECTOR 4 8
SWIDTH1 0 -1000
DWIDTH1 0 -8
BITMAP 
7C
C6
C6
FC
C6
C6
F8
C0
ENDCHAR
STARTCHAR uni0012
ENCODING 18
SWIDTH 1000 0
DWIDTH 8 0
BBX 8 8 0 0
VVECTOR 4 8
SWIDTH1 0 -1000
DWIDTH1 0 -8
BITMAP 
66
66
3C
66
66
66
3C
00
ENDCHAR
STARTCHAR uni0013
ENCODING 19
SWIDTH 1000 0
DWIDTH 8 0
BBX 8 8 0 0
VVECTOR 4 8
SWIDTH1 0 -1000
DWIDTH1 0 -8
BITMAP 
3C
60
3C
66
66
66
3C
00
ENDCHAR
STARTCHAR uni0014
ENCODING 20
SWIDTH 1000 0
DWIDTH 8 0
BBX 8 8 0 0
VVECTOR 4 8
SWIDTH1 0 -1000
DWIDTH1 0 -8
BITMAP 
00
00
1E
30
7C
30
1E
00
ENDCHAR
STARTCHAR uni0015
ENCODING 21
SWIDTH 1000 0
DWIDTH 8 0
BBX 8 8 0 0
VVECTOR 4 8
SWIDTH1 0 -1000
DWIDTH1 0 -8
BITMAP 
38
6C
C6
FE
C6
6C
38
00
ENDCHAR
STARTCHAR uni0016
ENCODING 22
SWIDTH 1000 0
DWIDTH 8 0
BBX 8 8 0 0
VVECTOR 4 8
SWIDTH1 0 -1000
DWIDTH1 0 -8
BITMAP 
00
C0
60
30
38
6C
C6
00
ENDCHAR
STARTCHAR uni0017
ENCODING 23
SWIDTH 1000 0
DWIDTH 8 0
BBX 8 8 0 0
VVECTOR 4 8
SWIDTH1 0 -1000
DWIDTH1 0 -8
BITMAP 
00
00
66
66
66
7C
60
60
ENDCHAR
STARTCHAR uni0018
ENCODING 24
SWIDTH 1000 0
DWIDTH 8 0
BBX 8 8 0 0
VVECTOR 4 8
SWIDTH1 0 -1000
DWIDTH1 0 -8
BITMAP 
00
00
FE
6C
6C
6C
6C
00
ENDCHAR
STARTCHAR uni0019
ENCODING 25
SWIDTH 1000 0
DWIDTH 8 0
BBX 8 8 0 0
VVECTOR 4 8
SWIDTH1 0 -1000
DWIDTH1 0 -8
BITMAP 
00
00
3C
66
66
7C
60
60
ENDCHAR
STARTCHAR uni001A
ENCODING 26
SWIDTH 1000 0
DWIDTH 8 0
BBX 8 8 0 0
VVECTOR 4 8
SWIDTH1 0 -1000
DWIDTH1 0 -8
BITMAP 
00
00
7E
D8
D8
D8
70
00
ENDCHAR
STARTCHAR uni001B
ENCODING 27
SWIDTH 1000 0
DWIDTH 8 0
BBX 8 8 0 0
VVECTOR 4 8
SWIDTH1 0 -1000
DWIDTH1 0 -8
BITMAP 
00
73
CE
18
18
18
0C
00
ENDCHAR
STARTCHAR uni001C
ENCODING 28
SWIDTH 1000 0
DWIDTH 8 0
BBX 8 8 0 0
VVECTOR 4 8
SWIDTH1 0 -1000
DWIDTH1 0 -8
BITMAP 
03
06
3C
66
66
3C
60
C0
ENDCHAR
STARTCHAR uni001D
ENCODING 29
SWIDTH 1000 0
DWIDTH 8 0
BBX 8 8 0 0
VVECTOR 4 8
SWIDTH1 0 -1000
DWIDTH1 0 -8
BITMAP 
00
E6
3C
18
38
6C
C7
00
ENDCHAR
STARTCHAR uni001E
ENCODING 30
SWIDTH 1000 0
DWIDTH 8 0
BBX 8 8 0 0
VVECTOR 4 8
SWIDTH1 0 -1000
DWIDTH1 0 -8
BITMAP 
03
06
66
66
66
3C
60
C0
ENDCHAR
STARTCHAR uni001F
ENCODING 31
SWIDTH 1000 0
DWIDTH 8 0
BBX 8 8 0 0
VVECTOR 4 8
SWIDTH1 0 -1000
DWIDTH1 0 -8
BITMAP 
00
00
66
C3
DB
DB
7E
00
ENDCHAR
STARTCHAR space
ENCODING 32
SWIDTH 1000 0
DWIDTH 8 0
BBX 8 8 0 0
VVECTOR 4 8
SWIDTH1 0 -1000
DWIDTH1 0 -8
BITMAP 
00
00
00
00
00
00
00
00
ENDCHAR
STARTCHAR exclam
ENCODING 33
SWIDTH 1000 0
DWIDTH 8 0
BBX 8 8 0 0
VVECTOR 4 8
SWIDTH1 0 -1000
DWIDTH1 0 -8
BITMAP 
18
18
18
18
18
00
18
00
ENDCHAR
STARTCHAR quotedbl
ENCODING 34
SWIDTH 1000 0
DWIDTH 8 0
BBX 8 8 0 0
VVECTOR 4 8
SWIDTH1 0 -1000
DWIDTH1 0 -8
BITMAP 
6C
6C
6C
00
00
00
00
00
ENDCHAR
STARTCHAR numbersign
ENCODING 35
SWIDTH 1000 0
DWIDTH 8 0
BBX 8 8 0 0
VVECTOR 4 8
SWIDTH1 0 -1000
DWIDTH1 0 -8
BITMAP 
6C
6C
FE
6C
FE
6C
6C
00
ENDCHAR
STARTCHAR dollar
ENCODING 36
SWIDTH 1000 0
DWIDTH 8 0
BBX 8 8 0 0
VVECTOR 4 8
SWIDTH1 0 -1000
DWIDTH1 0 -8
BITMAP 
18
3E
58
3C
1A
7C
18
00
ENDCHAR
STARTCHAR percent
ENCODING 37
SWIDTH 1000 0
DWIDTH 8 0
BBX 8 8 0 0
VVECTOR 4 8
SWIDTH1 0 -1000
DWIDTH1 0 -8
BITMAP 
00
C6
CC
18
30
66
C6
00
ENDCHAR
STARTCHAR ampersand
ENCODING 38
SWIDTH 1000 0
DWIDTH 8 0
BBX 8 8 0 0
VVECTOR 4 8
SWIDTH1 0 -1000
DWIDTH1 0 -8
BITMAP 
38
6C
38
76
DC
CC
76
00
ENDCHAR
STARTCHAR quotesingle
ENCODING 39
SWIDTH 1000 0
DWIDTH 8 0
BBX 8 8 0 0
VVECTOR 4 8
SWIDTH1 0 -1000
DWIDTH1 0 -8
BITMAP 
18
18
18
00
00
00
00
00
ENDCHAR
STARTCHAR parenleft
ENCODING 40
SWIDTH 1000 0
DWIDTH 8 0
BBX 8 8 0 0
VVECTOR 4 8
SWIDTH1 0 -1000
DWIDTH1 0 -8
BITMAP 
0C
18
30
30
30
18
0C
00
ENDCHAR
STARTCHAR parenright
ENCODING 41
SWIDTH 1000 0
DWIDTH 8 0
BBX 8 8 0 0
VVECTOR 4 8
SWIDTH1 0 -1000
DWIDTH1 0 -8
BITMAP 
30
18
0C
0C
0C
18
30
00
ENDCHAR
STARTCHAR asterisk
ENCODING 42
SWIDTH 1000 0
DWIDTH 8 0
BBX 8 8 0 0
VVECTOR 4 8
SWIDTH1 0 -1000
DWIDTH1 0 -8
BITMAP 
00
66
3C
FF
3C
66
00
00
ENDCHAR
STARTCHAR plus
ENCODING 43
SWIDTH 1000 0
DWIDTH 8 0
BBX 8 8 0 0
VVECTOR 4 8
SWIDTH1 0 -1000
DWIDTH1 0 -8
BITMAP 
00
18
18
7E
18
18
00
00
ENDCHAR
STARTCHAR comma
ENCODING 44
SWIDTH 1000 0
DWIDTH 8 0
BBX 8 8 0 0
VVECTOR 4 8
SWIDTH1 0 -1000
DWIDTH1 0 -8
BITMAP 
00
00
00
00
00
18
18
30
ENDCHAR
STARTCHAR hyphen
ENCODING 45
SWIDTH 1000 0
DWIDTH 8 0
BBX 8 8 0 0
VVECTOR 4 8
SWIDTH1 0 -1000
DWIDTH1 0 -8
BITMAP 
00
00
00
7E
00
00
00
00
ENDCHAR
STARTCHAR period
ENCODING 46
SWIDTH 1000 0
DWIDTH 8 0
BBX 8 8 0 0
VVECTOR 4 8
SWIDTH1 0 -1000
DWIDTH1 0 -8
BITMAP 
00
00
00
00
00
18
18
00
ENDCHAR
STARTCHAR slash
ENCODING 47
SWIDTH 1000 0
DWIDTH 8 0
BBX 8 8 0 0
VVECTOR 4 8
SWIDTH1 0 -1000
DWIDTH1 0 -8
BITMAP 
06
0C
18
30
60
C0
80
00
ENDCHAR
STARTCHAR zero
ENCODING 48
SWIDTH 1000 0
DWIDTH 8 0
BBX 8 8 0 0
VVECTOR 4 8
SWIDTH1 0 -1000
DWIDTH1 0 -8
BITMAP 
7C
E6
EA
F2
E2
E2
7C
00
ENDCHAR
STARTCHAR one
ENCODING 49
SWIDTH 1000 0
DWIDTH 8 0
BBX 8 8 0 0
VVECTOR 4 8
SWIDTH1 0 -1000
DWIDTH1 0 -8
BITMAP 
78
38
38
38
38
38
7C
00
ENDCHAR
STARTCHAR two
ENCODING 50
SWIDTH 1000 0
DWIDTH 8 0
BBX 8 8 0 0
VVECTOR 4 8
SWIDTH1 0 -1000
DWIDTH1 0 -8
BITMAP 
7C
86
1E
7C
F0
E0
FE
00
ENDCHAR
STARTCHAR three
ENCODING 51
SWIDTH 1000 0
DWIDTH 8 0
BBX 8 8 0 0
VVECTOR 4 8
SWIDTH1 0 -1000
DWIDTH1 0 -8
BITMAP 
7C
8E
0E
3C
0E
8E
7C
00
ENDCHAR
STARTCHAR four
ENCODING 52
SWIDTH 1000 0
DWIDTH 8 0
BBX 8 8 0 0
VVECTOR 4 8
SWIDTH1 0 -1000
DWIDTH1 0 -8
BITMAP 
3C
5C
9C
FE
1C
1C
1C
00
ENDCHAR
STARTCHAR five
ENCODING 53
SWIDTH 1000 0
DWIDTH 8 0
BBX 8 8 0 0
VVECTOR 4 8
SWIDTH1 0 -1000
DWIDTH1 0 -8
BITMAP 
FE
E0
FC
C6
06
C6
7C
00
ENDCHAR
STARTCHAR six
ENCODING 54
SWIDTH 1000 0
DWIDTH 8 0
BBX 8 8 0 0
VVECTOR 4 8
SWIDTH1 0 -1000
DWIDTH1 0 -8
BITMAP 
7C
E2
E0
FC
E2
E2
7C
00
ENDCHAR
STARTCHAR seven
ENCODING 55
SWIDTH 1000 0
DWIDTH 8 0
BBX 8 8 0 0
VVECTOR 4 8
SWIDTH1 0 -1000
DWIDTH1 0 -8
BITMAP 
7E
66
06
0C
18
18
18
00
ENDCHAR
STARTCHAR eight
ENCODING 56
SWIDTH 1000 0
DWIDTH 8 0
BBX 8 8 0 0
VVECTOR 4 8
SWIDTH1 0 -1000
DWIDTH1 0 -8
BITMAP 
3C
66
66
3C
66
66
3C
00
ENDCHAR
STARTCHAR nine
ENCODING 57
SWIDTH 1000 0
DWIDTH 8 0
BBX 8 8 0 0
VVECTOR 4 8
SWIDTH1 0 -1000
DWIDTH1 0 -8
BITMAP 
3C
66
66
3E
06
66
3C
00
ENDCHAR
STARTCHAR colon
ENCODING 58
SWIDTH 1000 0
DWIDTH 8 0
BBX 8 8 0 0
VVECTOR 4 8
SWIDTH1 0 -1000
DWIDTH1 0 -8
BITMAP 
00
00
18
18
00
18
18
00
ENDCHAR
STARTCHAR semicolon
ENCODING 59
SWIDTH 1000 0
DWIDTH 8 0
BBX 8 8 0 0
VVECTOR 4 8
SWIDTH1 0 -1000
DWIDTH1 0 -8
BITMAP 
00
00
18
18
00
18
18
30
ENDCHAR
STARTCHAR less
ENCODING 60
SWIDTH 1000 0
DWIDTH 8 0
BBX 8 8 0 0
VVECTOR 4 8
SWIDTH1 0 -1000
DWIDTH1 0 -8
BITMAP 
0C
18
30
60
30
18
0C
00
ENDCHAR
STARTCHAR equal
ENCODING 61
SWIDTH 1000 0
DWIDTH 8 0
BBX 8 8 0 0
VVECTOR 4 8
SWIDTH1 0 -1000
DWIDTH1 0 -8
BITMAP 
00
00
7E
00
7E
00
00
00
ENDCHAR
STARTCHAR greater
ENCODING 62
SWIDTH 1000 0
DWIDTH 8 0
BBX 8 8 0 0
VVECTOR 4 8
SWIDTH1 0 -1000
DWIDTH1 0 -8
BITMAP 
60
30
18
0C
18
30
60
00
ENDCHAR
STARTCHAR question
ENCODING 63
SWIDTH 1000 0
DWIDTH 8 0
BBX 8 8 0 0
VVECTOR 4 8
SWIDTH1 0 -1000
DWIDTH1 0 -8
BITMAP 
3C
66
66
0C
18
00
18
00
ENDCHAR
STARTCHAR at
ENCODING 64
SWIDTH 1000 0
DWIDTH 8 0
BBX 8 8 0 0
VVECTOR 4 8
SWIDTH1 0 -1000
DWIDTH1 0 -8
BITMAP 
7C
C6
DE
DE
DE
C0
7C
00
ENDCHAR
STARTCHAR A
ENCODING 65
SWIDTH 1000 0
DWIDTH 8 0
BBX 8 8 0 0
VVECTOR 4 8
SWIDTH1 0 -1000
DWIDTH1 0 -8
BITMAP 
10
38
38
5C
7C
CE
CE
00
ENDCHAR
STARTCHAR B
ENCODING 66
SWIDTH 1000 0
DWIDTH 8 0
BBX 8 8 0 0
VVECTOR 4 8
SWIDTH1 0 -1000
DWIDTH1 0 -8
BITMAP 
FC
E6
E6
FC
E6
E6
FC
00
ENDCHAR
STARTCHAR C
ENCODING 67
SWIDTH 1000 0
DWIDTH 8 0
BBX 8 8 0 0
VVECTOR 4 8
SWIDTH1 0 -1000
DWIDTH1 0 -8
BITMAP 
3C
66
E0
E0
E0
66
3C
00
ENDCHAR
STARTCHAR D
ENCODING 68
SWIDTH 1000 0
DWIDTH 8 0
BBX 8 8 0 0
VVECTOR 4 8
SWIDTH1 0 -1000
DWIDTH1 0 -8
BITMAP 
F8
EC
E6
E6
E6
EC
F8
00
ENDCHAR
STARTCHAR E
ENCODING 69
SWIDTH 1000 0
DWIDTH 8 0
BBX 8 8 0 0
VVECTOR 4 8
SWIDTH1 0 -1000
DWIDTH1 0 -8
BITMAP 
FE
E2
E0
F8
E0
E2
FE
00
ENDCHAR
STARTCHAR F
ENCODING 70
SWIDTH 1000 0
DWIDTH 8 0
BBX 8 8 0 0
VVECTOR 4 8
SWIDTH1 0 -1000
DWIDTH1 0 -8
BITMAP 
FE
E2
E0
F8
E0
E0
E0
00
ENDCHAR
STARTCHAR G
ENCODING 71
SWIDTH 1000 0
DWIDTH 8 0
BBX 8 8 0 0
VVECTOR 4 8
SWIDTH1 0 -1000
DWIDTH1 0 -8
BITMAP 
3C
66
E0
E0
EE
66
3E
00
ENDCHAR
STARTCHAR H
ENCODING 72
SWIDTH 1000 0
DWIDTH 8 0
BBX 8 8 0 0
VVECTOR 4 8
SWIDTH1 0 -1000
DWIDTH1 0 -8
BITMAP 
E6
E6
E6
FE
E6
E6
E6
00
ENDCHAR
STARTCHAR I
ENCODING 73
SWIDTH 1000 0
DWIDTH 8 0
BBX 8 8 0 0
VVECTOR 4 8
SWIDTH1 0 -1000
DWIDTH1 0 -8
BITMAP 
7C
38
38
38
38
38
7C
00
ENDCHAR
STARTCHAR J
ENCODING 74
SWIDTH 1000 0
DWIDTH 8 0
BBX 8 8 0 0
VVECTOR 4 8
SWIDTH1 0 -1000
DWIDTH1 0 -8
BITMAP 
1E
0E
0E
0E
CE
CE
7C
00
ENDCHAR
STARTCHAR K
ENCODING 75
SWIDTH 1000 0
DWIDTH 8 0
BBX 8 8 0 0
VVECTOR 4 8
SWIDTH1 0 -1000
DWIDTH1 0 -8
BITMAP 
E6
E6
EC
F8
EC
E6
E6
00
ENDCHAR
STARTCHAR L
ENCODING 76
SWIDTH 1000 0
DWIDTH 8 0
BBX 8 8 0 0
VVECTOR 4 8
SWIDTH1 0 -1000
DWIDTH1 0 -8
BITMAP 
E0
E0
E0
E0
E0
E2
FE
00
ENDCHAR
STARTCHAR M
ENCODING 77
SWIDTH 1000 0
DWIDTH 8 0
BBX 8 8 0 0
VVECTOR 4 8
SWIDTH1 0 -1000
DWIDTH1 0 -8
BITMAP 
C6
C6
EE
FE
D6
D6
D6
00
ENDCHAR
STARTCHAR N
ENCODING 78
SWIDTH 1000 0
DWIDTH 8 0
BBX 8 8 0 0
VVECTOR 4 8
SWIDTH1 0 -1000
DWIDTH1 0 -8
BITMAP 
C6
E6
F6
DE
CE
C6
C6
00
ENDCHAR
STARTCHAR O
ENCODING 79
SWIDTH 1000 0
DWIDTH 8 0
BBX 8 8 0 0
VVECTOR 4 8
SWIDTH1 0 -1000
DWIDTH1 0 -8
BITMAP 
7C
E6
E6
E6
E6
E6
7C
00
ENDCHAR
STARTCHAR P
ENCODING 80
SWIDTH 1000 0
DWIDTH 8 0
BBX 8 8 0 0
VVECTOR 4 8
SWIDTH1 0 -1000
DWIDTH1 0 -8
BITMAP 
FC
E6
E6
FC
E0
E0
E0
00
ENDCHAR
STARTCHAR Q
ENCODING 81
SWIDTH 1000 0
DWIDTH 8 0
BBX 8 8 0 0
VVECTOR 4 8
SWIDTH1 0 -1000
DWIDTH1 0 -8
BITMAP 
7C
E6
E6
E6
FA
EC
76
00
ENDCHAR
STARTCHAR R
ENCODING 82
SWIDTH 1000 0
DWIDTH 8 0
BBX 8 8 0 0
VVECTOR 4 8
SWIDTH1 0 -1000
DWIDTH1 0 -8
BITMAP 
FC
E6
E6
FC
EC
E6
E6
00
ENDCHAR
STARTCHAR S
ENCODING 83
SWIDTH 1000 0
DWIDTH 8 0
BBX 8 8 0 0
VVECTOR 4 8
SWIDTH1 0 -1000
DWIDTH1 0 -8
BITMAP 
7C
C6
E0
7C
0E
C6
7C
00
ENDCHAR
STARTCHAR T
ENCODING 84
SWIDTH 1000 0
DWIDTH 8 0
BBX 8 8 0 0
VVECTOR 4 8
SWIDTH1 0 -1000
DWIDTH1 0 -8
BITMAP 
FE
38
38
38
38
38
38
00
ENDCHAR
STARTCHAR U
ENCODING 85
SWIDTH 1000 0
DWIDTH 8 0
BBX 8 8 0 0
VVECTOR 4 8
SWIDTH1 0 -1000
DWIDTH1 0 -8
BITMAP 
E6
E6
E6
E6
E6
E6
7C
00
ENDCHAR
STARTCHAR V
ENCODING 86
SWIDTH 1000 0
DWIDTH 8 0
BBX 8 8 0 0
VVECTOR 4 8
SWIDTH1 0 -1000
DWIDTH1 0 -8
BITMAP 
E6
E6
E6
E6
E6
7C
38
00
ENDCHAR
STARTCHAR W
ENCODING 87
SWIDTH 1000 0
DWIDTH 8 0
BBX 8 8 0 0
VVECTOR 4 8
SWIDTH1 0 -1000
DWIDTH1 0 -8
BITMAP 
C6
C6
C6
D6
FE
EE
C6
00
ENDCHAR
STARTCHAR X
ENCODING 88
SWIDTH 1000 0
DWIDTH 8 0
BBX 8 8 0 0
VVECTOR 4 8
SWIDTH1 0 -1000
DWIDTH1 0 -8
BITMAP 
C6
6C
38
38
6C
C6
C6
00
ENDCHAR
STARTCHAR Y
ENCODING 89
SWIDTH 1000 0
DWIDTH 8 0
BBX 8 8 0 0
VVECTOR 4 8
SWIDTH1 0 -1000
DWIDTH1 0 -8
BITMAP 
E6
E6
E6
7C
38
38
7C
00
ENDCHAR
STARTCHAR Z
ENCODING 90
SWIDTH 1000 0
DWIDTH 8 0
BBX 8 8 0 0
VVECTOR 4 8
SWIDTH1 0 -1000
DWIDTH1 0 -8
BITMAP 
FE
C6
8C
18
32
66
FE
00
ENDCHAR
STARTCHAR bracketleft
ENCODING 91
SWIDTH 1000 0
DWIDTH 8 0
BBX 8 8 0 0
VVECTOR 4 8
SWIDTH1 0 -1000
DWIDTH1 0 -8
BITMAP 
3C
30
30
30
30
30
3C
00
ENDCHAR
STARTCHAR backslash
ENCODING 92
SWIDTH 1000 0
DWIDTH 8 0
BBX 8 8 0 0
VVECTOR 4 8
SWIDTH1 0 -1000
DWIDTH1 0 -8
BITMAP 
C0
60
30
18
0C
06
02
00
ENDCHAR
STARTCHAR bracketright
ENCODING 93
SWIDTH 1000 0
DWIDTH 8 0
BBX 8 8 0 0
VVECTOR 4 8
SWIDTH1 0 -1000
DWIDTH1 0 -8
BITMAP 
3C
0C
0C
0C
0C
0C
3C
00
ENDCHAR
STARTCHAR asciicircum
ENCODING 94
SWIDTH 1000 0
DWIDTH 8 0
BBX 8 8 0 0
VVECTOR 4 8
SWIDTH1 0 -1000
DWIDTH1 0 -8
BITMAP 
18
3C
7E
18
18
18
18
00
ENDCHAR
STARTCHAR underscore
ENCODING 95
SWIDTH 1000 0
DWIDTH 8 0
BBX 8 8 0 0
VVECTOR 4 8
SWIDTH1 0 -1000
DWIDTH1 0 -8
BITMAP 
00
00
00
00
00
00
00
FF
ENDCHAR
STARTCHAR grave
ENCODING 96
SWIDTH 1000 0
DWIDTH 8 0
BBX 8 8 0 0
VVECTOR 4 8
SWIDTH1 0 -1000
DWIDTH1 0 -8
BITMAP 
30
18
0C
00
00
00
00
00
ENDCHAR
STARTCHAR a
ENCODING 97
SWIDTH 1000 0
DWIDTH 8 0
BBX 8 8 0 0
VVECTOR 4 8
SWIDTH1 0 -1000
DWIDTH1 0 -8
BITMAP 
00
00
7C
06
7E
E6
7E
00
ENDCHAR
STARTCHAR b
ENCODING 98
SWIDTH 1000 0
DWIDTH 8 0
BBX 8 8 0 0
VVECTOR 4 8
SWIDTH1 0 -1000
DWIDTH1 0 -8
BITMAP 
E0
E0
EC
F6
E6
E6
FC
00
ENDCHAR
STARTCHAR c
ENCODING 99
SWIDTH 1000 0
DWIDTH 8 0
BBX 8 8 0 0
VVECTOR 4 8
SWIDTH1 0 -1000
DWIDTH1 0 -8
BITMAP 
00
00
7C
E6
E0
E6
7C
00
ENDCHAR
STARTCHAR d
ENCODING 100
SWIDTH 1000 0
DWIDTH 8 0
BBX 8 8 0 0
VVECTOR 4 8
SWIDTH1 0 -1000
DWIDTH1 0 -8
BITMAP 
0E
0E
6E
DE
CE
CE
7E
00
ENDCHAR
STARTCHAR e
ENCODING 101
SWIDTH 1000 0
DWIDTH 8 0
BBX 8 8 0 0
VVECTOR 4 8
SWIDTH1 0 -1000
DWIDTH1 0 -8
BITMAP 
00
00
7C
E6
FE
E0
7C
00
ENDCHAR
STARTCHAR f
ENCODING 102
SWIDTH 1000 0
DWIDTH 8 0
BBX 8 8 0 0
VVECTOR 4 8
SWIDTH1 0 -1000
DWIDTH1 0 -8
BITMAP 
3C
76
70
F8
70
70
F8
00
ENDCHAR
STARTCHAR g
ENCODING 103
SWIDTH 1000 0
DWIDTH 8 0
BBX 8 8 0 0
VVECTOR 4 8
SWIDTH1 0 -1000
DWIDTH1 0 -8
BITMAP 
00
00
7E
E6
E6
7E
06
FC
ENDCHAR
STARTCHAR h
ENCODING 104
SWIDTH 1000 0
DWIDTH 8 0
BBX 8 8 0 0
VVECTOR 4 8
SWIDTH1 0 -1000
DWIDTH1 0 -8
BITMAP 
E0
E0
EC
F6
E6
E6
E6
00
ENDCHAR
STARTCHAR i
ENCODING 105
SWIDTH 1000 0
DWIDTH 8 0
BBX 8 8 0 0
VVECTOR 4 8
SWIDTH1 0 -1000
DWIDTH1 0 -8
BITMAP 
38
00
78
38
38
38
7C
00
ENDCHAR
STARTCHAR j
ENCODING 106
SWIDTH 1000 0
DWIDTH 8 0
BBX 8 8 0 0
VVECTOR 4 8
SWIDTH1 0 -1000
DWIDTH1 0 -8
BITMAP 
0E
00
0E
0E
0E
CE
CE
7C
ENDCHAR
STARTCHAR k
ENCODING 107
SWIDTH 1000 0
DWIDTH 8 0
BBX 8 8 0 0
VVECTOR 4 8
SWIDTH1 0 -1000
DWIDTH1 0 -8
BITMAP 
E0
E0
E6
EC
F8
EC
E6
00
ENDCHAR
STARTCHAR l
ENCODING 108
SWIDTH 1000 0
DWIDTH 8 0
BBX 8 8 0 0
VVECTOR 4 8
SWIDTH1 0 -1000
DWIDTH1 0 -8
BITMAP 
38
38
38
38
38
38
3C
00
ENDCHAR
STARTCHAR m
ENCODING 109
SWIDTH 1000 0
DWIDTH 8 0
BBX 8 8 0 0
VVECTOR 4 8
SWIDTH1 0 -1000
DWIDTH1 0 -8
BITMAP 
00
00
6C
FE
D6
D6
C6
00
ENDCHAR
STARTCHAR n
ENCODING 110
SWIDTH 1000 0
DWIDTH 8 0
BBX 8 8 0 0
VVECTOR 4 8
SWIDTH1 0 -1000
DWIDTH1 0 -8
BITMAP 
00
00
EC
F6
E6
E6
E6
00
ENDCHAR
STARTCHAR o
ENCODING 111
SWIDTH 1000 0
DWIDTH 8 0
BBX 8 8 0 0
VVECTOR 4 8
SWIDTH1 0 -1000
DWIDTH1 0 -8
BITMAP 
00
00
7C
E6
E6
E6
7C
00
ENDCHAR
STARTCHAR p
ENCODING 112
SWIDTH 1000 0
DWIDTH 8 0
BBX 8 8 0 0
VVECTOR 4 8
SWIDTH1 0 -1000
DWIDTH1 0 -8
BITMAP 
00
00
EC
F6
E6
FC
E0
E0
ENDCHAR
STARTCHAR q
ENCODING 113
SWIDTH 1000 0
DWIDTH 8 0
BBX 8 8 0 0
VVECTOR 4 8
SWIDTH1 0 -1000
DWIDTH1 0 -8
BITMAP 
00
00
6E
DE
CE
7E
0E
0E
ENDCHAR
STARTCHAR r
ENCODING 114
SWIDTH 1000 0
DWIDTH 8 0
BBX 8 8 0 0
VVECTOR 4 8
SWIDTH1 0 -1000
DWIDTH1 0 -8
BITMAP 
00
00
EC
F6
E0
E0
E0
00
ENDCHAR
STARTCHAR s
ENCODING 115
SWIDTH 1000 0
DWIDTH 8 0
BBX 8 8 0 0
VVECTOR 4 8
SWIDTH1 0 -1000
DWIDTH1 0 -8
BITMAP 
00
00
7C
E0
7C
0E
FC
00
ENDCHAR
STARTCHAR t
ENCODING 116
SWIDTH 1000 0
DWIDTH 8 0
BBX 8 8 0 0
VVECTOR 4 8
SWIDTH1 0 -1000
DWIDTH1 0 -8
BITMAP 
70
70
FC
70
70
76
3C
00
ENDCHAR
STARTCHAR u
ENCODING 117
SWIDTH 1000 0
DWIDTH 8 0
BBX 8 8 0 0
VVECTOR 4 8
SWIDTH1 0 -1000
DWIDTH1 0 -8
BITMAP 
00
00
E6
E6
E6
E6
7E
00
ENDCHAR
STARTCHAR v
ENCODING 118
SWIDTH 1000 0
DWIDTH 8 0
BBX 8 8 0 0
VVECTOR 4 8
SWIDTH1 0 -1000
DWIDTH1 0 -8
BITMAP 
00
00
E6
E6
E6
7C
38
00
ENDCHAR
STARTCHAR w
ENCODING 119
SWIDTH 1000 0
DWIDTH 8 0
BBX 8 8 0 0
VVECTOR 4 8
SWIDTH1 0 -1000
DWIDTH1 0 -8
BITMAP 
00
00
C6
D6
D6
FE
6C
00
ENDCHAR
STARTCHAR x
ENCODING 120
SWIDTH 1000 0
DWIDTH 8 0
BBX 8 8 0 0
VVECTOR 4 8
SWIDTH1 0 -1000
DWIDTH1 0 -8
BITMAP 
00
00
C6
6C
38
6C
C6
00
ENDCHAR
STARTCHAR y
ENCODING 121
SWIDTH 1000 0
DWIDTH 8 0
BBX 8 8 0 0
VVECTOR 4 8
SWIDTH1 0 -1000
DWIDTH1 0 -8
BITMAP 
00
00
CE
CE
DE
6E
0E
FC
ENDCHAR
STARTCHAR z
ENCODING 122
SWIDTH 1000 0
DWIDTH 8 0
BBX 8 8 0 0
VVECTOR 4 8
SWIDTH1 0 -1000
DWIDTH1 0 -8
BITMAP 
00
00
7E
4C
18
32
7E
00
ENDCHAR
STARTCHAR braceleft
ENCODING 123
SWIDTH 1000 0
DWIDTH 8 0
BBX 8 8 0 0
VVECTOR 4 8
SWIDTH1 0 -1000
DWIDTH1 0 -8
BITMAP 
0E
18
18
70
18
18
0E
00
ENDCHAR
STARTCHAR bar
ENCODING 124
SWIDTH 1000 0
DWIDTH 8 0
BBX 8 8 0 0
VVECTOR 4 8
SWIDTH1 0 -1000
DWIDTH1 0 -8
BITMAP 
18
18
18
18
18
18
18
00
ENDCHAR
STARTCHAR braceright
ENCODING 125
SWIDTH 1000 0
DWIDTH 8 0
BBX 8 8 0 0
VVECTOR 4 8
SWIDTH1 0 -1000
DWIDTH1 0 -8
BITMAP 
70
18
18
0E
18
18
70
00
ENDCHAR
STARTCHAR asciitilde
ENCODING 126
SWIDTH 1000 0
DWIDTH 8 0
BBX 8 8 0 0
VVECTOR 4 8
SWIDTH1 0 -1000
DWIDTH1 0 -8
BITMAP 
76
DC
00
00
00
00
00
00
ENDCHAR
STARTCHAR uni007F
ENCODING 127
SWIDTH 1000 0
DWIDTH 8 0
BBX 8 8 0 0
VVECTOR 4 8
SWIDTH1 0 -1000
DWIDTH1 0 -8
BITMAP 
38
6C
C6
C6
C6
6C
38
00
ENDCHAR
STARTCHAR uni0080
ENCODING 128
SWIDTH 1000 0
DWIDTH 8 0
BBX 8 8 0 0
VVECTOR 4 8
SWIDTH1 0 -1000
DWIDTH1 0 -8
BITMAP 
00
00
3C
3C
3C
3C
00
00
ENDCHAR
STARTCHAR uni0081
ENCODING 129
SWIDTH 1000 0
DWIDTH 8 0
BBX 8 8 0 0
VVECTOR 4 8
SWIDTH1 0 -1000
DWIDTH1 0 -8
BITMAP 
18
18
FF
00
00
FF
00
00
ENDCHAR
STARTCHAR uni0082
ENCODING 130
SWIDTH 1000 0
DWIDTH 8 0
BBX 8 8 0 0
VVECTOR 4 8
SWIDTH1 0 -1000
DWIDTH1 0 -8
BITMAP 
24
24
24
27
27
24
24
24
ENDCHAR
STARTCHAR uni0083
ENCODING 131
SWIDTH 1000 0
DWIDTH 8 0
BBX 8 8 0 0
VVECTOR 4 8
SWIDTH1 0 -1000
DWIDTH1 0 -8
BITMAP 
24
24
27
20
20
3F
00
00
ENDCHAR
STARTCHAR uni0084
ENCODING 132
SWIDTH 1000 0
DWIDTH 8 0
BBX 8 8 0 0
VVECTOR 4 8
SWIDTH1 0 -1000
DWIDTH1 0 -8
BITMAP 
00
00
FF
00
00
FF
18
18
ENDCHAR
STARTCHAR uni0085
ENCODING 133
SWIDTH 1000 0
DWIDTH 8 0
BBX 8 8 0 0
VVECTOR 4 8
SWIDTH1 0 -1000
DWIDTH1 0 -8
BITMAP 
24
24
24
24
24
24
24
24
ENDCHAR
STARTCHAR uni0086
ENCODING 134
SWIDTH 1000 0
DWIDTH 8 0
BBX 8 8 0 0
VVECTOR 4 8
SWIDTH1 0 -1000
DWIDTH1 0 -8
BITMAP 
00
00
3F
20
20
27
24
24
ENDCHAR
STARTCHAR uni0087
ENCODING 135
SWIDTH 1000 0
DWIDTH 8 0
BBX 8 8 0 0
VVECTOR 4 8
SWIDTH1 0 -1000
DWIDTH1 0 -8
BITMAP 
24
24
27
20
20
27
24
24
ENDCHAR
STARTCHAR uni0088
ENCODING 136
SWIDTH 1000 0
DWIDTH 8 0
BBX 8 8 0 0
VVECTOR 4 8
SWIDTH1 0 -1000
DWIDTH1 0 -8
BITMAP 
24
24
24
E4
E4
24
24
24
ENDCHAR
STARTCHAR uni0089
ENCODING 137
SWIDTH 1000 0
DWIDTH 8 0
BBX 8 8 0 0
VVECTOR 4 8
SWIDTH1 0 -1000
DWIDTH1 0 -8
BITMAP 
24
24
E4
04
04
FC
00
00
ENDCHAR
STARTCHAR uni008A
ENCODING 138
SWIDTH 1000 0
DWIDTH 8 0
BBX 8 8 0 0
VVECTOR 4 8
SWIDTH1 0 -1000
DWIDTH1 0 -8
BITMAP 
00
00
FF
00
00
FF
00
00
ENDCHAR
STARTCHAR uni008B
ENCODING 139
SWIDTH 1000 0
DWIDTH 8 0
BBX 8 8 0 0
VVECTOR 4 8
SWIDTH1 0 -1000
DWIDTH1 0 -8
BITMAP 
24
24
E7
00
00
FF
00
00
ENDCHAR
STARTCHAR uni008C
ENCODING 140
SWIDTH 1000 0
DWIDTH 8 0
BBX 8 8 0 0
VVECTOR 4 8
SWIDTH1 0 -1000
DWIDTH1 0 -8
BITMAP 
00
00
FC
04
04
E4
24
24
ENDCHAR
STARTCHAR uni008D
ENCODING 141
SWIDTH 1000 0
DWIDTH 8 0
BBX 8 8 0 0
VVECTOR 4 8
SWIDTH1 0 -1000
DWIDTH1 0 -8
BITMAP 
24
24
E4
04
04
E4
24
24
ENDCHAR
STARTCHAR uni008E
ENCODING 142
SWIDTH 1000 0
DWIDTH 8 0
BBX 8 8 0 0
VVECTOR 4 8
SWIDTH1 0 -1000
DWIDTH1 0 -8
BITMAP 
00
00
FF
00
00
E7
24
24
ENDCHAR
STARTCHAR uni008F
ENCODING 143
SWIDTH 1000 0
DWIDTH 8 0
BBX 8 8 0 0
VVECTOR 4 8
SWIDTH1 0 -1000
DWIDTH1 0 -8
BITMAP 
24
24
E7
00
00
E7
24
24
ENDCHAR
STARTCHAR uni0090
ENCODING 144
SWIDTH 1000 0
DWIDTH 8 0
BBX 8 8 0 0
VVECTOR 4 8
SWIDTH1 0 -1000
DWIDTH1 0 -8
BITMAP 
00
00
00
18
18
00
00
00
ENDCHAR
STARTCHAR uni0091
ENCODING 145
SWIDTH 1000 0
DWIDTH 8 0
BBX 8 8 0 0
VVECTOR 4 8
SWIDTH1 0 -1000
DWIDTH1 0 -8
BITMAP 
18
18
18
18
18
00
00
00
ENDCHAR
STARTCHAR uni0092
ENCODING 146
SWIDTH 1000 0
DWIDTH 8 0
BBX 8 8 0 0
VVECTOR 4 8
SWIDTH1 0 -1000
DWIDTH1 0 -8
BITMAP 
00
00
00
1F
1F
00
00
00
ENDCHAR
STARTCHAR uni0093
ENCODING 147
SWIDTH 1000 0
DWIDTH 8 0
BBX 8 8 0 0
VVECTOR 4 8
SWIDTH1 0 -1000
DWIDTH1 0 -8
BITMAP 
18
18
18
1F
0F
00
00
00
ENDCHAR
STARTCHAR uni0094
ENCODING 148
SWIDTH 1000 0
DWIDTH 8 0
BBX 8 8 0 0
VVECTOR 4 8
SWIDTH1 0 -1000
DWIDTH1 0 -8
BITMAP 
00
00
00
18
18
18
18
18
ENDCHAR
STARTCHAR uni0095
ENCODING 149
SWIDTH 1000 0
DWIDTH 8 0
BBX 8 8 0 0
VVECTOR 4 8
SWIDTH1 0 -1000
DWIDTH1 0 -8
BITMAP 
18
18
18
18
18
18
18
18
ENDCHAR
STARTCHAR uni0096
ENCODING 150
SWIDTH 1000 0
DWIDTH 8 0
BBX 8 8 0 0
VVECTOR 4 8
SWIDTH1 0 -1000
DWIDTH1 0 -8
BITMAP 
00
00
00
0F
1F
18
18
18
ENDCHAR
STARTCHAR uni0097
ENCODING 151
SWIDTH 1000 0
DWIDTH 8 0
BBX 8 8 0 0
VVECTOR 4 8
SWIDTH1 0 -1000
DWIDTH1 0 -8
BITMAP 
18
18
18
1F
1F
18
18
18
ENDCHAR
STARTCHAR uni0098
ENCODING 152
SWIDTH 1000 0
DWIDTH 8 0
BBX 8 8 0 0
VVECTOR 4 8
SWIDTH1 0 -1000
DWIDTH1 0 -8
BITMAP 
00
00
00
F8
F8
00
00
00
ENDCHAR
STARTCHAR uni0099
ENCODING 153
SWIDTH 1000 0
DWIDTH 8 0
BBX 8 8 0 0
VVECTOR 4 8
SWIDTH1 0 -1000
DWIDTH1 0 -8
BITMAP 
18
18
18
F8
F0
00
00
00
ENDCHAR
STARTCHAR uni009A
ENCODING 154
SWIDTH 1000 0
DWIDTH 8 0
BBX 8 8 0 0
VVECTOR 4 8
SWIDTH1 0 -1000
DWIDTH1 0 -8
BITMAP 
00
00
00
FF
FF
00
00
00
ENDCHAR
STARTCHAR uni009B
ENCODING 155
SWIDTH 1000 0
DWIDTH 8 0
BBX 8 8 0 0
VVECTOR 4 8
SWIDTH1 0 -1000
DWIDTH1 0 -8
BITMAP 
18
18
18
FF
FF
00
00
00
ENDCHAR
STARTCHAR uni009C
ENCODING 156
SWIDTH 1000 0
DWIDTH 8 0
BBX 8 8 0 0
VVECTOR 4 8
SWIDTH1 0 -1000
DWIDTH1 0 -8
BITMAP 
00
00
00
F0
F8
18
18
18
ENDCHAR
STARTCHAR uni009D
ENCODING 157
SWIDTH 1000 0
DWIDTH 8 0
BBX 8 8 0 0
VVECTOR 4 8
SWIDTH1 0 -1000
DWIDTH1 0 -8
BITMAP 
18
18
18
F8
F8
18
18
18
ENDCHAR
STARTCHAR uni009E
ENCODING 158
SWIDTH 1000 0
DWIDTH 8 0
BBX 8 8 0 0
VVECTOR 4 8
SWIDTH1 0 -1000
DWIDTH1 0 -8
BITMAP 
00
00
00
FF
FF
18
18
18
ENDCHAR
STARTCHAR uni009F
ENCODING 159
SWIDTH 1000 0
DWIDTH 8 0
BBX 8 8 0 0
VVECTOR 4 8
SWIDTH1 0 -1000
DWIDTH1 0 -8
BITMAP 
18
18
18
FF
FF
18
18
18
ENDCHAR
STARTCHAR uni00A0
ENCODING 160
SWIDTH 1000 0
DWIDTH 8 0
BBX 8 8 0 0
VVECTOR 4 8
SWIDTH1 0 -1000
DWIDTH1 0 -8
BITMAP 
78
0C
7C
CC
76
00
FE
00
ENDCHAR
STARTCHAR exclamdown
ENCODING 161
SWIDTH 1000 0
DWIDTH 8 0
BBX 8 8 0 0
VVECTOR 4 8
SWIDTH1 0 -1000
DWIDTH1 0 -8
BITMAP 
3C
66
66
66
3C
00
7E
00
ENDCHAR
STARTCHAR cent
ENCODING 162
SWIDTH 1000 0
DWIDTH 8 0
BBX 8 8 0 0
VVECTOR 4 8
SWIDTH1 0 -1000
DWIDTH1 0 -8
BITMAP 
38
44
38
00
00
00
00
00
ENDCHAR
STARTCHAR sterling
ENCODING 163
SWIDTH 1000 0
DWIDTH 8 0
BBX 8 8 0 0
VVECTOR 4 8
SWIDTH1 0 -1000
DWIDTH1 0 -8
BITMAP 
3C
66
60
F8
60
66
FE
00
ENDCHAR
STARTCHAR currency
ENCODING 164
SWIDTH 1000 0
DWIDTH 8 0
BBX 8 8 0 0
VVECTOR 4 8
SWIDTH1 0 -1000
DWIDTH1 0 -8
BITMAP 
38
44
BA
A2
BA
44
38
00
ENDCHAR
STARTCHAR yen
ENCODING 165
SWIDTH 1000 0
DWIDTH 8 0
BBX 8 8 0 0
VVECTOR 4 8
SWIDTH1 0 -1000
DWIDTH1 0 -8
BITMAP 
7E
F4
F4
74
34
34
34
00
ENDCHAR
STARTCHAR brokenbar
ENCODING 166
SWIDTH 1000 0
DWIDTH 8 0
BBX 8 8 0 0
VVECTOR 4 8
SWIDTH1 0 -1000
DWIDTH1 0 -8
BITMAP 
1E
30
38
6C
38
18
F0
00
ENDCHAR
STARTCHAR section
ENCODING 167
SWIDTH 1000 0
DWIDTH 8 0
BBX 8 8 0 0
VVECTOR 4 8
SWIDTH1 0 -1000
DWIDTH1 0 -8
BITMAP 
18
18
7E
18
18
18
18
00
ENDCHAR
STARTCHAR dieresis
ENCODING 168
SWIDTH 1000 0
DWIDTH 8 0
BBX 8 8 0 0
VVECTOR 4 8
SWIDTH1 0 -1000
DWIDTH1 0 -8
BITMAP 
40
C0
44
4C
54
1E
04
00
ENDCHAR
STARTCHAR copyright
ENCODING 169
SWIDTH 1000 0
DWIDTH 8 0
BBX 8 8 0 0
VVECTOR 4 8
SWIDTH1 0 -1000
DWIDTH1 0 -8
BITMAP 
40
C0
4C
52
44
08
1E
00
ENDCHAR
STARTCHAR ordfeminine
ENCODING 170
SWIDTH 1000 0
DWIDTH 8 0
BBX 8 8 0 0
VVECTOR 4 8
SWIDTH1 0 -1000
DWIDTH1 0 -8
BITMAP 
E0
10
62
16
EA
0F
02
00
ENDCHAR
STARTCHAR guillemotleft
ENCODING 171
SWIDTH 1000 0
DWIDTH 8 0
BBX 8 8 0 0
VVECTOR 4 8
SWIDTH1 0 -1000
DWIDTH1 0 -8
BITMAP 
00
33
66
CC
66
33
00
00
ENDCHAR
STARTCHAR logicalnot
ENCODING 172
SWIDTH 1000 0
DWIDTH 8 0
BBX 8 8 0 0
VVECTOR 4 8
SWIDTH1 0 -1000
DWIDTH1 0 -8
BITMAP 
00
CC
66
33
66
CC
00
00
ENDCHAR
STARTCHAR uni00AD
ENCODING 173
SWIDTH 1000 0
DWIDTH 8 0
BBX 8 8 0 0
VVECTOR 4 8
SWIDTH1 0 -1000
DWIDTH1 0 -8
BITMAP 
E0
90
94
EE
84
84
83
00
ENDCHAR
STARTCHAR registered
ENCODING 174
SWIDTH 1000 0
DWIDTH 8 0
BBX 8 8 0 0
VVECTOR 4 8
SWIDTH1 0 -1000
DWIDTH1 0 -8
BITMAP 
18
00
18
30
66
66
3C
00
ENDCHAR
STARTCHAR macron
ENCODING 175
SWIDTH 1000 0
DWIDTH 8 0
BBX 8 8 0 0
VVECTOR 4 8
SWIDTH1 0 -1000
DWIDTH1 0 -8
BITMAP 
18
00
18
18
18
18
18
00
ENDCHAR
STARTCHAR degree
ENCODING 176
SWIDTH 1000 0
DWIDTH 8 0
BBX 8 8 0 0
VVECTOR 4 8
SWIDTH1 0 -1000
DWIDTH1 0 -8
BITMAP 
1C
36
30
FC
30
30
E0
00
ENDCHAR
STARTCHAR plusminus
ENCODING 177
SWIDTH 1000 0
DWIDTH 8 0
BBX 8 8 0 0
VVECTOR 4 8
SWIDTH1 0 -1000
DWIDTH1 0 -8
BITMAP 
00
18
3C
66
60
66
3C
18
ENDCHAR
STARTCHAR uni00B2
ENCODING 178
SWIDTH 1000 0
DWIDTH 8 0
BBX 8 8 0 0
VVECTOR 4 8
SWIDTH1 0 -1000
DWIDTH1 0 -8
BITMAP 
00
66
00
00
00
00
00
00
ENDCHAR
STARTCHAR uni00B3
ENCODING 179
SWIDTH 1000 0
DWIDTH 8 0
BBX 8 8 0 0
VVECTOR 4 8
SWIDTH1 0 -1000
DWIDTH1 0 -8
BITMAP 
0C
18
30
00
00
00
00
00
ENDCHAR
STARTCHAR acute
ENCODING 180
SWIDTH 1000 0
DWIDTH 8 0
BBX 8 8 0 0
VVECTOR 4 8
SWIDTH1 0 -1000
DWIDTH1 0 -8
BITMAP 
10
38
6C
C6
00
00
00
00
ENDCHAR
STARTCHAR mu
ENCODING 181
SWIDTH 1000 0
DWIDTH 8 0
BBX 8 8 0 0
VVECTOR 4 8
SWIDTH1 0 -1000
DWIDTH1 0 -8
BITMAP 
00
C6
CC
18
20
5B
DB
00
ENDCHAR
STARTCHAR paragraph
ENCODING 182
SWIDTH 1000 0
DWIDTH 8 0
BBX 8 8 0 0
VVECTOR 4 8
SWIDTH1 0 -1000
DWIDTH1 0 -8
BITMAP 
40
C0
46
49
46
09
06
00
ENDCHAR
STARTCHAR periodcentered
ENCODING 183
SWIDTH 1000 0
DWIDTH 8 0
BBX 8 8 0 0
VVECTOR 4 8
SWIDTH1 0 -1000
DWIDTH1 0 -8
BITMAP 
E0
10
66
19
E6
09
06
00
ENDCHAR
STARTCHAR cedilla
ENCODING 184
SWIDTH 1000 0
DWIDTH 8 0
BBX 8 8 0 0
VVECTOR 4 8
SWIDTH1 0 -1000
DWIDTH1 0 -8
BITMAP 
F0
80
E6
19
E6
09
06
00
ENDCHAR
STARTCHAR uni00B9
ENCODING 185
SWIDTH 1000 0
DWIDTH 8 0
BBX 8 8 0 0
VVECTOR 4 8
SWIDTH1 0 -1000
DWIDTH1 0 -8
BITMAP 
F0
10
26
49
86
09
06
00
ENDCHAR
STARTCHAR ordmasculine
ENCODING 186
SWIDTH 1000 0
DWIDTH 8 0
BBX 8 8 0 0
VVECTOR 4 8
SWIDTH1 0 -1000
DWIDTH1 0 -8
BITMAP 
38
C6
C6
F8
C6
C6
F8
00
ENDCHAR
STARTCHAR guillemotright
ENCODING 187
SWIDTH 1000 0
DWIDTH 8 0
BBX 8 8 0 0
VVECTOR 4 8
SWIDTH1 0 -1000
DWIDTH1 0 -8
BITMAP 
00
38
6C
C6
C6
6C
38
00
ENDCHAR
STARTCHAR onequarter
ENCODING 188
SWIDTH 1000 0
DWIDTH 8 0
BBX 8 8 0 0
VVECTOR 4 8
SWIDTH1 0 -1000
DWIDTH1 0 -8
BITMAP 
00
38
7C
FE
FE
7C
38
00
ENDCHAR
STARTCHAR onehalf
ENCODING 189
SWIDTH 1000 0
DWIDTH 8 0
BBX 8 8 0 0
VVECTOR 4 8
SWIDTH1 0 -1000
DWIDTH1 0 -8
BITMAP 
66
66
3C
18
7E
18
3C
00
ENDCHAR
STARTCHAR threequarters
ENCODING 190
SWIDTH 1000 0
DWIDTH 8 0
BBX 8 8 0 0
VVECTOR 4 8
SWIDTH1 0 -1000
DWIDTH1 0 -8
BITMAP 
3C
42
B9
A5
B9
A9
66
3C
ENDCHAR
STARTCHAR questiondown
ENCODING 191
SWIDTH 1000 0
DWIDTH 8 0
BBX 8 8 0 0
VVECTOR 4 8
SWIDTH1 0 -1000
DWIDTH1 0 -8
BITMAP 
FB
55
51
51
00
00
00
00
ENDCHAR
STARTCHAR Agrave
ENCODING 192
SWIDTH 1000 0
DWIDTH 8 0
BBX 8 8 0 0
VVECTOR 4 8
SWIDTH1 0 -1000
DWIDTH1 0 -8
BITMAP 
0C
30
18
3C
66
7E
66
00
ENDCHAR
STARTCHAR Aacute
ENCODING 193
SWIDTH 1000 0
DWIDTH 8 0
BBX 8 8 0 0
VVECTOR 4 8
SWIDTH1 0 -1000
DWIDTH1 0 -8
BITMAP 
0C
30
7E
60
7C
60
7E
00
ENDCHAR
STARTCHAR Acircumflex
ENCODING 194
SWIDTH 1000 0
DWIDTH 8 0
BBX 8 8 0 0
VVECTOR 4 8
SWIDTH1 0 -1000
DWIDTH1 0 -8
BITMAP 
0C
30
7E
18
18
18
7E
00
ENDCHAR
STARTCHAR Atilde
ENCODING 195
SWIDTH 1000 0
DWIDTH 8 0
BBX 8 8 0 0
VVECTOR 4 8
SWIDTH1 0 -1000
DWIDTH1 0 -8
BITMAP 
0C
30
3C
66
66
66
3C
00
ENDCHAR
STARTCHAR Adieresis
ENCODING 196
SWIDTH 1000 0
DWIDTH 8 0
BBX 8 8 0 0
VVECTOR 4 8
SWIDTH1 0 -1000
DWIDTH1 0 -8
BITMAP 
0C
30
66
66
66
66
3C
00
ENDCHAR
STARTCHAR Aring
ENCODING 197
SWIDTH 1000 0
DWIDTH 8 0
BBX 8 8 0 0
VVECTOR 4 8
SWIDTH1 0 -1000
DWIDTH1 0 -8
BITMAP 
18
66
18
3C
66
7E
66
00
ENDCHAR
STARTCHAR AE
ENCODING 198
SWIDTH 1000 0
DWIDTH 8 0
BBX 8 8 0 0
VVECTOR 4 8
SWIDTH1 0 -1000
DWIDTH1 0 -8
BITMAP 
18
66
7E
60
7C
60
7E
00
ENDCHAR
STARTCHAR Ccedilla
ENCODING 199
SWIDTH 1000 0
DWIDTH 8 0
BBX 8 8 0 0
VVECTOR 4 8
SWIDTH1 0 -1000
DWIDTH1 0 -8
BITMAP 
18
66
7E
18
18
18
7E
00
ENDCHAR
STARTCHAR Egrave
ENCODING 200
SWIDTH 1000 0
DWIDTH 8 0
BBX 8 8 0 0
VVECTOR 4 8
SWIDTH1 0 -1000
DWIDTH1 0 -8
BITMAP 
18
66
3C
66
66
66
3C
00
ENDCHAR
STARTCHAR Eacute
ENCODING 201
SWIDTH 1000 0
DWIDTH 8 0
BBX 8 8 0 0
VVECTOR 4 8
SWIDTH1 0 -1000
DWIDTH1 0 -8
BITMAP 
18
66
66
66
66
66
3C
00
ENDCHAR
STARTCHAR Ecircumflex
ENCODING 202
SWIDTH 1000 0
DWIDTH 8 0
BBX 8 8 0 0
VVECTOR 4 8
SWIDTH1 0 -1000
DWIDTH1 0 -8
BITMAP 
30
0C
18
3C
66
7E
66
00
ENDCHAR
STARTCHAR Edieresis
ENCODING 203
SWIDTH 1000 0
DWIDTH 8 0
BBX 8 8 0 0
VVECTOR 4 8
SWIDTH1 0 -1000
DWIDTH1 0 -8
BITMAP 
30
0C
7E
60
7C
60
7E
00
ENDCHAR
STARTCHAR Igrave
ENCODING 204
SWIDTH 1000 0
DWIDTH 8 0
BBX 8 8 0 0
VVECTOR 4 8
SWIDTH1 0 -1000
DWIDTH1 0 -8
BITMAP 
30
0C
7E
18
18
18
7E
00
ENDCHAR
STARTCHAR Iacute
ENCODING 205
SWIDTH 1000 0
DWIDTH 8 0
BBX 8 8 0 0
VVECTOR 4 8
SWIDTH1 0 -1000
DWIDTH1 0 -8
BITMAP 
30
0C
3C
66
66
66
3C
00
ENDCHAR
STARTCHAR Icircumflex
ENCODING 206
SWIDTH 1000 0
DWIDTH 8 0
BBX 8 8 0 0
VVECTOR 4 8
SWIDTH1 0 -1000
DWIDTH1 0 -8
BITMAP 
30
0C
66
66
66
66
3C
00
ENDCHAR
STARTCHAR Idieresis
ENCODING 207
SWIDTH 1000 0
DWIDTH 8 0
BBX 8 8 0 0
VVECTOR 4 8
SWIDTH1 0 -1000
DWIDTH1 0 -8
BITMAP 
66
00
66
3C
18
18
18
00
ENDCHAR
STARTCHAR Eth
ENCODING 208
SWIDTH 1000 0
DWIDTH 8 0
BBX 8 8 0 0
VVECTOR 4 8
SWIDTH1 0 -1000
DWIDTH1 0 -8
BITMAP 
66
00
18
3C
66
7E
66
00
ENDCHAR
STARTCHAR Ntilde
ENCODING 209
SWIDTH 1000 0
DWIDTH 8 0
BBX 8 8 0 0
VVECTOR 4 8
SWIDTH1 0 -1000
DWIDTH1 0 -8
BITMAP 
66
00
7E
60
7C
60
7E
00
ENDCHAR
STARTCHAR Ograve
ENCODING 210
SWIDTH 1000 0
DWIDTH 8 0
BBX 8 8 0 0
VVECTOR 4 8
SWIDTH1 0 -1000
DWIDTH1 0 -8
BITMAP 
66
00
7E
18
18
18
7E
00
ENDCHAR
STARTCHAR Oacute
ENCODING 211
SWIDTH 1000 0
DWIDTH 8 0
BBX 8 8 0 0
VVECTOR 4 8
SWIDTH1 0 -1000
DWIDTH1 0 -8
BITMAP 
66
00
3C
66
66
66
3C
00
ENDCHAR
STARTCHAR Ocircumflex
ENCODING 212
SWIDTH 1000 0
DWIDTH 8 0
BBX 8 8 0 0
VVECTOR 4 8
SWIDTH1 0 -1000
DWIDTH1 0 -8
BITMAP 
66
00
66
66
66
66
3C
00
ENDCHAR
STARTCHAR Otilde
ENCODING 213
SWIDTH 1000 0
DWIDTH 8 0
BBX 8 8 0 0
VVECTOR 4 8
SWIDTH1 0 -1000
DWIDTH1 0 -8
BITMAP 
3C
66
C0
C0
66
3C
00
18
ENDCHAR
STARTCHAR Odieresis
ENCODING 214
SWIDTH 1000 0
DWIDTH 8 0
BBX 8 8 0 0
VVECTOR 4 8
SWIDTH1 0 -1000
DWIDTH1 0 -8
BITMAP 
3E
78
D8
FE
D8
D8
DE
00
ENDCHAR
STARTCHAR multiply
ENCODING 215
SWIDTH 1000 0
DWIDTH 8 0
BBX 8 8 0 0
VVECTOR 4 8
SWIDTH1 0 -1000
DWIDTH1 0 -8
BITMAP 
18
00
18
3C
66
7E
66
00
ENDCHAR
STARTCHAR Oslash
ENCODING 216
SWIDTH 1000 0
DWIDTH 8 0
BBX 8 8 0 0
VVECTOR 4 8
SWIDTH1 0 -1000
DWIDTH1 0 -8
BITMAP 
7A
CC
CE
D6
E6
66
BC
00
ENDCHAR
STARTCHAR Ugrave
ENCODING 217
SWIDTH 1000 0
DWIDTH 8 0
BBX 8 8 0 0
VVECTOR 4 8
SWIDTH1 0 -1000
DWIDTH1 0 -8
BITMAP 
32
4C
00
66
76
6E
66
00
ENDCHAR
STARTCHAR Uacute
ENCODING 218
SWIDTH 1000 0
DWIDTH 8 0
BBX 8 8 0 0
VVECTOR 4 8
SWIDTH1 0 -1000
DWIDTH1 0 -8
BITMAP 
32
4C
00
3C
66
7E
66
00
ENDCHAR
STARTCHAR Ucircumflex
ENCODING 219
SWIDTH 1000 0
DWIDTH 8 0
BBX 8 8 0 0
VVECTOR 4 8
SWIDTH1 0 -1000
DWIDTH1 0 -8
BITMAP 
32
4C
3C
66
66
66
3C
00
ENDCHAR
STARTCHAR Udieresis
ENCODING 220
SWIDTH 1000 0
DWIDTH 8 0
BBX 8 8 0 0
VVECTOR 4 8
SWIDTH1 0 -1000
DWIDTH1 0 -8
BITMAP 
C0
30
0C
30
CC
30
C0
00
ENDCHAR
STARTCHAR Yacute
ENCODING 221
SWIDTH 1000 0
DWIDTH 8 0
BBX 8 8 0 0
VVECTOR 4 8
SWIDTH1 0 -1000
DWIDTH1 0 -8
BITMAP 
06
18
60
18
66
18
06
00
ENDCHAR
STARTCHAR Thorn
ENCODING 222
SWIDTH 1000 0
DWIDTH 8 0
BBX 8 8 0 0
VVECTOR 4 8
SWIDTH1 0 -1000
DWIDTH1 0 -8
BITMAP 
06
0C
7E
18
7E
30
60
00
ENDCHAR
STARTCHAR germandbls
ENCODING 223
SWIDTH 1000 0
DWIDTH 8 0
BBX 8 8 0 0
VVECTOR 4 8
SWIDTH1 0 -1000
DWIDTH1 0 -8
BITMAP 
00
00
32
4C
00
7E
00
00
ENDCHAR
STARTCHAR agrave
ENCODING 224
SWIDTH 1000 0
DWIDTH 8 0
BBX 8 8 0 0
VVECTOR 4 8
SWIDTH1 0 -1000
DWIDTH1 0 -8
BITMAP 
0C
30
78
0C
7C
CC
76
00
ENDCHAR
STARTCHAR aacute
ENCODING 225
SWIDTH 1000 0
DWIDTH 8 0
BBX 8 8 0 0
VVECTOR 4 8
SWIDTH1 0 -1000
DWIDTH1 0 -8
BITMAP 
0C
30
3C
66
7E
60
3C
00
ENDCHAR
STARTCHAR acircumflex
ENCODING 226
SWIDTH 1000 0
DWIDTH 8 0
BBX 8 8 0 0
VVECTOR 4 8
SWIDTH1 0 -1000
DWIDTH1 0 -8
BITMAP 
0C
30
00
38
18
18
3C
00
ENDCHAR
STARTCHAR atilde
ENCODING 227
SWIDTH 1000 0
DWIDTH 8 0
BBX 8 8 0 0
VVECTOR 4 8
SWIDTH1 0 -1000
DWIDTH1 0 -8
BITMAP 
0C
30
00
3C
66
66
3C
00
ENDCHAR
STARTCHAR adieresis
ENCODING 228
SWIDTH 1000 0
DWIDTH 8 0
BBX 8 8 0 0
VVECTOR 4 8
SWIDTH1 0 -1000
DWIDTH1 0 -8
BITMAP 
0C
30
00
66
66
66
3E
00
ENDCHAR
STARTCHAR aring
ENCODING 229
SWIDTH 1000 0
DWIDTH 8 0
BBX 8 8 0 0
VVECTOR 4 8
SWIDTH1 0 -1000
DWIDTH1 0 -8
BITMAP 
18
66
78
0C
7C
CC
76
00
ENDCHAR
STARTCHAR ae
ENCODING 230
SWIDTH 1000 0
DWIDTH 8 0
BBX 8 8 0 0
VVECTOR 4 8
SWIDTH1 0 -1000
DWIDTH1 0 -8
BITMAP 
18
66
3C
66
7E
60
3C
00
ENDCHAR
STARTCHAR ccedilla
ENCODING 231
SWIDTH 1000 0
DWIDTH 8 0
BBX 8 8 0 0
VVECTOR 4 8
SWIDTH1 0 -1000
DWIDTH1 0 -8
BITMAP 
18
66
00
38
18
18
3C
00
ENDCHAR
STARTCHAR egrave
ENCODING 232
SWIDTH 1000 0
DWIDTH 8 0
BBX 8 8 0 0
VVECTOR 4 8
SWIDTH1 0 -1000
DWIDTH1 0 -8
BITMAP 
18
66
00
3C
66
66
3C
00
ENDCHAR
STARTCHAR eacute
ENCODING 233
SWIDTH 1000 0
DWIDTH 8 0
BBX 8 8 0 0
VVECTOR 4 8
SWIDTH1 0 -1000
DWIDTH1 0 -8
BITMAP 
18
66
00
66
66
66
3C
00
ENDCHAR
STARTCHAR ecircumflex
ENCODING 234
SWIDTH 1000 0
DWIDTH 8 0
BBX 8 8 0 0
VVECTOR 4 8
SWIDTH1 0 -1000
DWIDTH1 0 -8
BITMAP 
30
0C
78
0C
7C
CC
76
00
ENDCHAR
STARTCHAR edieresis
ENCODING 235
SWIDTH 1000 0
DWIDTH 8 0
BBX 8 8 0 0
VVECTOR 4 8
SWIDTH1 0 -1000
DWIDTH1 0 -8
BITMAP 
30
0C
3C
66
7E
60
3C
00
ENDCHAR
STARTCHAR igrave
ENCODING 236
SWIDTH 1000 0
DWIDTH 8 0
BBX 8 8 0 0
VVECTOR 4 8
SWIDTH1 0 -1000
DWIDTH1 0 -8
BITMAP 
30
0C
00
38
18
18
3C
00
ENDCHAR
STARTCHAR iacute
ENCODING 237
SWIDTH 1000 0
DWIDTH 8 0
BBX 8 8 0 0
VVECTOR 4 8
SWIDTH1 0 -1000
DWIDTH1 0 -8
BITMAP 
30
0C
00
3C
66
66
3C
00
ENDCHAR
STARTCHAR icircumflex
ENCODING 238
SWIDTH 1000 0
DWIDTH 8 0
BBX 8 8 0 0
VVECTOR 4 8
SWIDTH1 0 -1000
DWIDTH1 0 -8
BITMAP 
30
0C
00
66
66
66
3C
00
ENDCHAR
STARTCHAR idieresis
ENCODING 239
SWIDTH 1000 0
DWIDTH 8 0
BBX 8 8 0 0
VVECTOR 4 8
SWIDTH1 0 -1000
DWIDTH1 0 -8
BITMAP 
66
00
66
66
66
3E
06
7C
ENDCHAR
STARTCHAR eth
ENCODING 240
SWIDTH 1000 0
DWIDTH 8 0
BBX 8 8 0 0
VVECTOR 4 8
SWIDTH1 0 -1000
DWIDTH1 0 -8
BITMAP 
66
00
78
0C
7C
CC
76
00
ENDCHAR
STARTCHAR ntilde
ENCODING 241
SWIDTH 1000 0
DWIDTH 8 0
BBX 8 8 0 0
VVECTOR 4 8
SWIDTH1 0 -1000
DWIDTH1 0 -8
BITMAP 
66
00
3C
66
7E
60
3C
00
ENDCHAR
STARTCHAR ograve
ENCODING 242
SWIDTH 1000 0
DWIDTH 8 0
BBX 8 8 0 0
VVECTOR 4 8
SWIDTH1 0 -1000
DWIDTH1 0 -8
BITMAP 
66
00
38
18
18
18
3C
00
ENDCHAR
STARTCHAR oacute
ENCODING 243
SWIDTH 1000 0
DWIDTH 8 0
BBX 8 8 0 0
VVECTOR 4 8
SWIDTH1 0 -1000
DWIDTH1 0 -8
BITMAP 
66
00
00
3C
66
66
3C
00
ENDCHAR
STARTCHAR ocircumflex
ENCODING 244
SWIDTH 1000 0
DWIDTH 8 0
BBX 8 8 0 0
VVECTOR 4 8
SWIDTH1 0 -1000
DWIDTH1 0 -8
BITMAP 
66
00
00
66
66
66
3E
00
ENDCHAR
STARTCHAR otilde
ENCODING 245
SWIDTH 1000 0
DWIDTH 8 0
BBX 8 8 0 0
VVECTOR 4 8
SWIDTH1 0 -1000
DWIDTH1 0 -8
BITMAP 
00
00
3C
60
60
3C
00
18
ENDCHAR
STARTCHAR odieresis
ENCODING 246
SWIDTH 1000 0
DWIDTH 8 0
BBX 8 8 0 0
VVECTOR 4 8
SWIDTH1 0 -1000
DWIDTH1 0 -8
BITMAP 
00
00
6C
1A
7E
D8
6E
00
ENDCHAR
STARTCHAR divide
ENCODING 247
SWIDTH 1000 0
DWIDTH 8 0
BBX 8 8 0 0
VVECTOR 4 8
SWIDTH1 0 -1000
DWIDTH1 0 -8
BITMAP 
18
00
78
0C
7C
CC
76
00
ENDCHAR
STARTCHAR oslash
ENCODING 248
SWIDTH 1000 0
DWIDTH 8 0
BBX 8 8 0 0
VVECTOR 4 8
SWIDTH1 0 -1000
DWIDTH1 0 -8
BITMAP 
00
00
7A
CC
D6
66
BC
00
ENDCHAR
STARTCHAR ugrave
ENCODING 249
SWIDTH 1000 0
DWIDTH 8 0
BBX 8 8 0 0
VVECTOR 4 8
SWIDTH1 0 -1000
DWIDTH1 0 -8
BITMAP 
32
4C
00
DC
66
66
66
00
ENDCHAR
STARTCHAR uacute
ENCODING 250
SWIDTH 1000 0
DWIDTH 8 0
BBX 8 8 0 0
VVECTOR 4 8
SWIDTH1 0 -1000
DWIDTH1 0 -8
BITMAP 
13
0B
31
06
DD
21
60
EA
ENDCHAR
STARTCHAR ucircumflex
ENCODING 251
SWIDTH 1000 0
DWIDTH 8 0
BBX 8 8 0 0
VVECTOR 4 8
SWIDTH1 0 -1000
DWIDTH1 0 -8
BITMAP 
3E
70
CD
E3
EA
CD
F0
EA
ENDCHAR
STARTCHAR udieresis
ENCODING 252
SWIDTH 1000 0
DWIDTH 8 0
BBX 8 8 0 0
VVECTOR 4 8
SWIDTH1 0 -1000
DWIDTH1 0 -8
BITMAP 
3E
86
CD
D4
EA
DD
7E
02
ENDCHAR
STARTCHAR yacute
ENCODING 253
SWIDTH 1000 0
DWIDTH 8 0
BBX 8 8 0 0
VVECTOR 4 8
SWIDTH1 0 -1000
DWIDTH1 0 -8
BITMAP 
1E
8A
CD
C9
EA
3E
8C
CD
ENDCHAR
STARTCHAR thorn
ENCODING 254
SWIDTH 1000 0
DWIDTH 8 0
BBX 8 8 0 0
VVECTOR 4 8
SWIDTH1 0 -1000
DWIDTH1 0 -8
BITMAP 
D4
EA
DD
7E
03
FE
00
C8
ENDCHAR
STARTCHAR ydieresis
ENCODING 255
SWIDTH 1000 0
DWIDTH 8 0
BBX 8 8 0 0
VVECTOR 4 8
SWIDTH1 0 -1000
DWIDTH1 0 -8
BITMAP 
47
C5
DD
7E
00
3C
DD
77
ENDCHAR
ENDFONT
